<svg width="164" height="25" viewBox="0 0 164 25" fill="none" xmlns="http://www.w3.org/2000/svg">
<path d="M4.125 20.2773L20.1228 4.27734M6.61548 4.27734H20.125V17.7893" stroke="#00D1FF" stroke-width="1.79"/>
<path d="M31.0705 16.5093L37.8025 8.26434H31.2575V6.20734H40.5905V7.97534L34.0795 16.2203H40.6415V18.2773H31.0705V16.5093ZM46.1709 18.4473C45.2076 18.4473 44.3746 18.2377 43.6719 17.8183C42.9806 17.399 42.4423 16.8437 42.0569 16.1523C41.6716 15.4497 41.4789 14.6903 41.4789 13.8743C41.4789 13.0357 41.6659 12.265 42.0399 11.5623C42.4253 10.8483 42.9693 10.2817 43.6719 9.86234C44.3746 9.43168 45.2133 9.21634 46.1879 9.21634C47.1626 9.21634 47.9956 9.43168 48.6869 9.86234C49.3783 10.2817 49.9053 10.8427 50.2679 11.5453C50.6419 12.2367 50.8289 12.9847 50.8289 13.7893C50.8289 14.084 50.8119 14.339 50.7779 14.5543H43.8929C43.9496 15.2457 44.2046 15.7897 44.6579 16.1863C45.1226 16.583 45.6553 16.7813 46.2559 16.7813C46.7093 16.7813 47.1343 16.6737 47.5309 16.4583C47.9389 16.2317 48.2166 15.937 48.3639 15.5743L50.3189 16.1183C49.9903 16.7983 49.4633 17.3593 48.7379 17.8013C48.0126 18.232 47.1569 18.4473 46.1709 18.4473ZM43.8419 13.1093H48.4999C48.4319 12.4407 48.1769 11.9023 47.7349 11.4943C47.3043 11.075 46.7773 10.8653 46.1539 10.8653C45.5419 10.8653 45.0149 11.075 44.5729 11.4943C44.1423 11.9023 43.8986 12.4407 43.8419 13.1093ZM57.5207 11.3413C56.8294 11.3413 56.2117 11.4773 55.6677 11.7493C55.1237 12.01 54.7327 12.3897 54.4947 12.8883V18.2773H52.2167V9.36934H54.3077V11.2733C54.6137 10.6613 55.0104 10.1797 55.4977 9.82834C55.9964 9.47701 56.5177 9.28434 57.0617 9.25034C57.2997 9.25034 57.4527 9.25601 57.5207 9.26734V11.3413ZM62.7887 18.4473C61.814 18.4473 60.9754 18.2377 60.2727 17.8183C59.5814 17.3877 59.0487 16.821 58.6747 16.1183C58.3007 15.4157 58.1137 14.6563 58.1137 13.8403C58.1137 13.013 58.3007 12.248 58.6747 11.5453C59.06 10.8427 59.5984 10.2817 60.2897 9.86234C60.9924 9.43168 61.8254 9.21634 62.7887 9.21634C63.752 9.21634 64.5794 9.43168 65.2707 9.86234C65.9734 10.2817 66.5117 10.8427 66.8857 11.5453C67.2597 12.248 67.4467 13.013 67.4467 13.8403C67.4467 14.6563 67.2597 15.4157 66.8857 16.1183C66.5117 16.821 65.9734 17.3877 65.2707 17.8183C64.5794 18.2377 63.752 18.4473 62.7887 18.4473ZM60.4597 13.8403C60.4597 14.3617 60.5617 14.8263 60.7657 15.2343C60.9697 15.631 61.2474 15.9427 61.5987 16.1693C61.95 16.396 62.3467 16.5093 62.7887 16.5093C63.2194 16.5093 63.6104 16.396 63.9617 16.1693C64.313 15.9313 64.5907 15.614 64.7947 15.2173C65.01 14.8093 65.1177 14.3447 65.1177 13.8233C65.1177 13.3133 65.01 12.86 64.7947 12.4633C64.5907 12.0553 64.313 11.738 63.9617 11.5113C63.6104 11.2733 63.2194 11.1543 62.7887 11.1543C62.3467 11.1543 61.95 11.2733 61.5987 11.5113C61.2474 11.738 60.9697 12.0553 60.7657 12.4633C60.5617 12.86 60.4597 13.319 60.4597 13.8403ZM71.4019 10.5253V18.2773H69.0559V6.20734H70.9259L77.1649 14.1633V6.22434H79.5109V18.2773H77.5559L71.4019 10.5253ZM81.8007 8.12834V5.86734H84.0787V8.12834H81.8007ZM81.8007 18.2773V9.36934H84.0787V18.2773H81.8007ZM89.6187 18.3283C88.8253 18.3283 88.1283 18.1243 87.5277 17.7163C86.927 17.3083 86.4567 16.7643 86.1167 16.0843C85.7767 15.393 85.6067 14.6393 85.6067 13.8233C85.6067 12.962 85.7823 12.1857 86.1337 11.4943C86.485 10.7917 86.9723 10.2363 87.5957 9.82834C88.219 9.42034 88.9387 9.21634 89.7547 9.21634C90.446 9.21634 91.0523 9.37501 91.5737 9.69234C92.095 9.99834 92.5257 10.412 92.8657 10.9333V9.36934H94.8547V17.8523C94.8547 18.7363 94.6393 19.49 94.2087 20.1133C93.7893 20.748 93.2057 21.2297 92.4577 21.5583C91.7097 21.8983 90.8597 22.0683 89.9077 22.0683C88.933 22.0683 88.1113 21.904 87.4427 21.5753C86.7853 21.258 86.2187 20.8047 85.7427 20.2153L86.9837 19.0083C87.3237 19.4277 87.7487 19.7563 88.2587 19.9943C88.78 20.2323 89.3297 20.3513 89.9077 20.3513C90.3837 20.3513 90.82 20.2607 91.2167 20.0793C91.6247 19.9093 91.9533 19.6373 92.2027 19.2633C92.452 18.9007 92.5767 18.4303 92.5767 17.8523V16.7303C92.282 17.2403 91.8627 17.637 91.3187 17.9203C90.786 18.1923 90.2193 18.3283 89.6187 18.3283ZM90.3837 16.5093C90.8823 16.5093 91.33 16.362 91.7267 16.0673C92.1347 15.7727 92.418 15.4213 92.5767 15.0133V12.8883C92.3727 12.367 92.0497 11.9477 91.6077 11.6303C91.177 11.313 90.7237 11.1543 90.2477 11.1543C89.783 11.1543 89.375 11.2847 89.0237 11.5453C88.6837 11.806 88.4173 12.146 88.2247 12.5653C88.032 12.9733 87.9357 13.4153 87.9357 13.8913C87.9357 14.3787 88.0433 14.8207 88.2587 15.2173C88.474 15.614 88.763 15.9313 89.1257 16.1693C89.4997 16.396 89.919 16.5093 90.3837 16.5093ZM105.187 18.2773H102.909V13.2793C102.909 12.588 102.773 12.0723 102.501 11.7323C102.24 11.3923 101.878 11.2223 101.413 11.2223C101.13 11.2223 100.835 11.3017 100.529 11.4603C100.234 11.619 99.9624 11.84 99.7131 12.1233C99.4751 12.3953 99.2994 12.7127 99.1861 13.0753V18.2773H96.9081V5.86734H99.1861V11.0183C99.5148 10.4517 99.9624 10.0097 100.529 9.69234C101.096 9.37501 101.713 9.21634 102.382 9.21634C103.141 9.21634 103.725 9.38634 104.133 9.72634C104.541 10.0663 104.819 10.5027 104.966 11.0353C105.113 11.568 105.187 12.129 105.187 12.7183V18.2773ZM112.456 17.8183C112.15 17.9543 111.77 18.0903 111.317 18.2263C110.875 18.3623 110.416 18.4303 109.94 18.4303C109.521 18.4303 109.135 18.3567 108.784 18.2093C108.433 18.062 108.149 17.8297 107.934 17.5123C107.73 17.1837 107.628 16.7587 107.628 16.2373V11.1203H106.455V9.36934H107.628V6.47934H109.906V9.36934H111.776V11.1203H109.906V15.4723C109.906 15.7783 109.985 15.9993 110.144 16.1353C110.314 16.2713 110.518 16.3393 110.756 16.3393C110.994 16.3393 111.226 16.2997 111.453 16.2203C111.68 16.141 111.861 16.073 111.997 16.0163L112.456 17.8183ZM116.923 18.4473C116.164 18.4473 115.439 18.3227 114.747 18.0733C114.056 17.824 113.461 17.4557 112.962 16.9683L113.778 15.4893C114.311 15.92 114.832 16.2373 115.342 16.4413C115.852 16.6453 116.351 16.7473 116.838 16.7473C117.28 16.7473 117.632 16.668 117.892 16.5093C118.164 16.3507 118.3 16.1127 118.3 15.7953C118.3 15.4667 118.136 15.2457 117.807 15.1323C117.479 15.0077 117.02 14.8547 116.43 14.6733C115.773 14.4693 115.223 14.2597 114.781 14.0443C114.339 13.829 114.005 13.5683 113.778 13.2623C113.563 12.9563 113.455 12.5597 113.455 12.0723C113.455 11.1997 113.784 10.5027 114.441 9.98134C115.099 9.46001 115.971 9.19934 117.059 9.19934C117.694 9.19934 118.295 9.30134 118.861 9.50534C119.428 9.69801 119.944 10.0153 120.408 10.4573L119.49 11.9023C118.618 11.2223 117.773 10.8823 116.957 10.8823C116.595 10.8823 116.272 10.9503 115.988 11.0863C115.716 11.2223 115.58 11.4603 115.58 11.8003C115.58 12.1177 115.711 12.3443 115.971 12.4803C116.243 12.6163 116.651 12.7637 117.195 12.9223C117.898 13.1377 118.493 13.3473 118.98 13.5513C119.479 13.7553 119.853 14.016 120.102 14.3333C120.363 14.6507 120.493 15.0813 120.493 15.6253C120.493 16.5093 120.17 17.2007 119.524 17.6993C118.878 18.198 118.011 18.4473 116.923 18.4473ZM125.736 18.2773C125.736 17.6087 125.81 17.0137 125.957 16.4923C126.116 15.971 126.388 15.5007 126.773 15.0813C127.158 14.662 127.702 14.254 128.405 13.8573C129.028 13.5287 129.55 13.251 129.969 13.0243C130.388 12.7977 130.706 12.5823 130.921 12.3783C131.148 12.163 131.261 11.9137 131.261 11.6303C131.261 11.2903 131.125 11.0013 130.853 10.7633C130.581 10.514 130.196 10.3893 129.697 10.3893C129.153 10.3893 128.683 10.5197 128.286 10.7803C127.901 11.041 127.566 11.3413 127.283 11.6813L125.838 10.0153C126.042 9.80001 126.348 9.56768 126.756 9.31834C127.164 9.06901 127.651 8.85368 128.218 8.67234C128.785 8.49101 129.408 8.40034 130.088 8.40034C131.244 8.40034 132.139 8.67234 132.774 9.21634C133.42 9.74901 133.743 10.4403 133.743 11.2903C133.743 11.823 133.618 12.2763 133.369 12.6503C133.131 13.013 132.831 13.3247 132.468 13.5853C132.117 13.8347 131.777 14.0557 131.448 14.2483C130.723 14.611 130.15 14.9283 129.731 15.2003C129.323 15.4723 128.994 15.8123 128.745 16.2203H133.93V18.2773H125.736ZM144.291 13.2963C144.291 14.2937 144.098 15.1833 143.713 15.9653C143.339 16.736 142.817 17.3423 142.149 17.7843C141.491 18.2263 140.743 18.4473 139.905 18.4473C139.066 18.4473 138.312 18.2263 137.644 17.7843C136.986 17.3423 136.465 16.736 136.08 15.9653C135.706 15.1833 135.519 14.2937 135.519 13.2963C135.519 12.299 135.706 11.415 136.08 10.6443C136.465 9.86234 136.986 9.25034 137.644 8.80834C138.312 8.35501 139.066 8.12834 139.905 8.12834C140.743 8.12834 141.491 8.35501 142.149 8.80834C142.817 9.25034 143.339 9.86234 143.713 10.6443C144.098 11.415 144.291 12.299 144.291 13.2963ZM141.996 13.2963C141.996 12.3897 141.797 11.653 141.401 11.0863C141.015 10.5083 140.517 10.2193 139.905 10.2193C139.27 10.2193 138.76 10.5083 138.375 11.0863C137.989 11.653 137.797 12.3897 137.797 13.2963C137.797 14.203 137.989 14.9397 138.375 15.5063C138.76 16.073 139.27 16.3563 139.905 16.3563C140.517 16.3563 141.015 16.073 141.401 15.5063C141.797 14.9397 141.996 14.203 141.996 13.2963ZM145.774 18.2773C145.774 17.6087 145.848 17.0137 145.995 16.4923C146.154 15.971 146.426 15.5007 146.811 15.0813C147.196 14.662 147.74 14.254 148.443 13.8573C149.066 13.5287 149.588 13.251 150.007 13.0243C150.426 12.7977 150.744 12.5823 150.959 12.3783C151.186 12.163 151.299 11.9137 151.299 11.6303C151.299 11.2903 151.163 11.0013 150.891 10.7633C150.619 10.514 150.234 10.3893 149.735 10.3893C149.191 10.3893 148.721 10.5197 148.324 10.7803C147.939 11.041 147.604 11.3413 147.321 11.6813L145.876 10.0153C146.08 9.80001 146.386 9.56768 146.794 9.31834C147.202 9.06901 147.689 8.85368 148.256 8.67234C148.823 8.49101 149.446 8.40034 150.126 8.40034C151.282 8.40034 152.177 8.67234 152.812 9.21634C153.458 9.74901 153.781 10.4403 153.781 11.2903C153.781 11.823 153.656 12.2763 153.407 12.6503C153.169 13.013 152.869 13.3247 152.506 13.5853C152.155 13.8347 151.815 14.0557 151.486 14.2483C150.761 14.611 150.188 14.9283 149.769 15.2003C149.361 15.4723 149.032 15.8123 148.783 16.2203H153.968V18.2773H145.774ZM162.714 16.2203V18.2773H155.812V16.2203H158.226V11.0693C158.09 11.2393 157.857 11.4207 157.529 11.6133C157.211 11.806 156.86 11.9703 156.475 12.1063C156.101 12.2423 155.766 12.3103 155.472 12.3103V10.1853C155.676 10.1853 155.919 10.123 156.203 9.99834C156.497 9.86234 156.786 9.70368 157.07 9.52234C157.364 9.34101 157.614 9.16534 157.818 8.99534C158.033 8.81401 158.169 8.67234 158.226 8.57034H160.555V16.2203H162.714Z" fill="#050F26"/>
</svg>
